#N canvas 1863 170 1863 1371 12;
#X declare -lib mrpeach;
#X obj 68 30 declare -lib mrpeach;
#X obj 171 214 netreceive -u -b;
#X msg 186 134 listen 9000;
#X obj 170 276 oscparse;
#X obj 60 351 route list;
#X obj 37 410 route l_wrist_x l_wrist_z r_wrist_x r_wrist_z;
#X floatatom 96 467 5 0 0 0 - - - 0;
#X floatatom 176 475 5 0 0 0 - - - 0;
#X floatatom 261 473 5 0 0 0 - - - 0;
#X floatatom 32 472 5 0 0 0 - - - 0;
#X connect 1 0 3 0;
#X connect 2 0 1 0;
#X connect 3 0 4 0;
#X connect 4 0 5 0;
#X connect 5 0 9 0;
#X connect 5 1 6 0;
#X connect 5 2 7 0;
#X connect 5 3 8 0;
