#N canvas 24 38 1371 891 12;
#X declare -path else;
#X declare -lib mrpeach;
#X obj 22 27 tgl 19 0 empty empty empty 0 -10 0 12 #fcfcfc #000000 #000000 0 1;
#X msg 22 51 \; pd dsp \$1;
#X obj 22 92 declare -path else;
#X floatatom 647 424 5 0 0 0 - - - 0;
#X obj 435 852 osc~;
#N canvas 0 22 450 278 (subpatch) 0;
#X array \$0-viewOSC 1000 float 1;
#A 0 0 0 0 0 0 0 0 0 0 0 0 0 0 0 0 0 0 0 0 0 0 0 0 0 0 0 0 0 0 0 0 0 0 0 0 0 0 0 0 0 0 0 0 0 0 0 0 0 0 0 0 0 0 0 0 0 0 0 0 0 0 0 0 0 0 0 0 0 0 0 0 0 0 0 0 0 0 0 0 0 0 0 0 0 0 0 0 0 0 0 0 0 0 0 0 0 0 0 0 0 0 0 0 0 0 0 0 0 0 0 0 0 0 0 0 0 0 0 0 0 0 0 0 0 0 0 0 0 0 0 0 0 0 0 0 0 0 0 0 0 0 0 0 0 0 0 0 0 0 0 0 0 0 0 0 0 0 0 0 0 0 0 0 0 0 0 0 0 0 0 0 0 0 0 0 0 0 0 0 0 0 0 0 0 0 0 0 0 0 0 0 0 0 0 0 0 0 0 0 0 0 0 0 0 0 0 0 0 0 0 0 0 0 0 0 0 0 0 0 0 0 0 0 0 0 0 0 0 0 0 0 0 0 0 0 0 0 0 0 0 0 0 0 0 0 0 0 0 0 0 0 0 0 0 0 0 0 0 0 0 0 0 0 0 0 0 0 0 0 0 0 0 0 0 0 0 0 0 0 0 0 0 0 0 0 0 0 0 0 0 0 0 0 0 0 0 0 0 0 0 0 0 0 0 0 0 0 0 0 0 0 0 0 0 0 0 0 0 0 0 0 0 0 0 0 0 0 0 0 0 0 0 0 0 0 0 0 0 0 0 0 0 0 0 0 0 0 0 0 0 0 0 0 0 0 0 0 0 0 0 0 0 0 0 0 0 0 0 0 0 0 0 0 0 0 0 0 0 0 0 0 0 0 0 0 0 0 0 0 0 0 0 0 0 0 0 0 0 0 0 0 0 0 0 0 0 0 0 0 0 0 0 0 0 0 0 0 0 0 0 0 0 0 0 0 0 0 0 0 0 0 0 0 0 0 0 0 0 0 0 0 0 0 0 0 0 0 0 0 0 0 0 0 0 0 0 0 0 0 0 0 0 0 0 0 0 0 0 0 0 0 0 0 0 0 0 0 0 0 0 0 0 0 0 0 0 0 0 0 0 0 0 0 0 0 0 0 0 0 0 0 0 0 0 0 0 0 0 0 0 0 0 0 0 0 0 0 0 0 0 0 0 0 0 0 0 0 0 0 0 0 0 0 0 0 0 0 0 0 0 0 0 0 0 0 0 0 0 0 0 0 0 0 0 0 0 0 0 0 0 0 0 0 0 0 0 0 0 0 0 0 0 0 0 0 0 0 0 0 0 0 0 0 0 0 0 0 0 0 0 0 0 0 0 0 0 0 0 0 0 0 0 0 0 0 0 0 0 0 0 0 0 0 0 0 0 0 0 0 0 0 0 0 0 0 0 0 0 0 0 0 0 0 0 0 0 0 0 0 0 0 0 0 0 0 0 0 0 0 0 0 0 0 0 0 0 0 0 0 0 0 0 0 0 0 0 0 0 0 0 0 0 0 0 0 0 0 0 0 0 0 0 0 0 0 0 0 0 0 0 0 0 0 0 0 0 0 0 0 0 0 0 0 0 0 0 0 0 0 0 0 0 0 0 0 0 0 0 0 0 0 0 0 0 0 0 0 0 0 0 0 0 0 0 0 0 0 0 0 0 0 0 0 0 0 0 0 0 0 0 0 0 0 0 0 0 0 0 0 0 0 0 0 0 0 0 0 0 0 0 0 0 0 0 0 0 0 0 0 0 0 0 0 0 0 0 0 0 0 0 0 0 0 0 0 0 0 0 0 0 0 0 0 0 0 0 0 0 0 0 0 0 0 0 0 0 0 0 0 0 0 0 0 0 0 0 0 0 0 0 0 0 0 0 0 0 0 0 0 0 0 0 0 0 0 0 0 0 0 0 0 0 0 0 0 0 0 0 0 0 0 0 0 0 0 0 0 0 0 0 0 0 0 0 0 0 0 0 0 0 0 0 0 0 0 0 0 0 0 0 0 0 0 0 0 0 0 0 0 0 0 0 0 0 0 0 0 0 0 0 0 0 0 0 0 0 0 0 0 0 0 0 0 0 0 0 0 0 0 0 0 0 0 0 0 0 0 0 0 0 0 0 0 0 0 0 0 0 0 0 0 0 0 0 0 0 0 0 0 0 0 0 0 0 0 0 0 0 0 0 0 0 0 0 0 0 0 0 0 0 0 0 0 0 0 0 0 0 0 0 0 0 0 0 0 0 0 0 0 0;
#X coords 0 1 1000 -1 200 140 1 0 0;
#X restore 265 1304 graph;
#X obj 424 1219 tgl 19 0 empty empty empty 0 -10 0 12 #fcfcfc #000000 #000000 0 1;
#X obj 424 1261 bng 19 250 50 0 empty empty empty 0 -10 0 12 #fcfcfc #000000 #000000;
#X obj 338 1281 tabwrite~ \$0-viewOSC;
#X obj 879 854 osc~;
#X obj 656 854 osc~;
#X obj 1101 855 osc~;
#X obj 793 468 * 5;
#X obj 1101 876 /~ 5;
#X obj 1323 853 osc~;
#X obj 831 468 * 6;
#X obj 1542 853 osc~;
#X obj 868 468 * 7;
#X obj 484 1058 hsl 162 19 0 1 0 0 empty empty spinLevel 10 10 0 12 #c6ffc7 #000000 #000000 0 1;
#X obj 484 1081 hsl 162 19 -2 2 0 0 empty empty spinSpeed 10 10 0 12 #c6ffc7 #000000 #000000 0 1;
#X obj 434 982 *~;
#X obj 466 898 vsl 19 100 0 1 0 0 empty empty empty 0 -9 0 12 #c6ffc7 #000000 #000000 0 1;
#X obj 547 1034 tgl 19 0 empty empty spinSwitch 30 10 0 12 #c6ffc7 #000000 #000000 0 1;
#X obj 683 468 * 2;
#X obj 424 1240 metro 100;
#X obj 757 468 * 4;
#X obj 879 875 /~ 4;
#X obj 720 468 * 3;
#X obj 656 875 /~ 3;
#X obj 938 1214 clip~ -1 1;
#X obj 1019 1214 clip~ -1 1;
#X obj 1109 1212 clip~ -1 1;
#X obj 1197 1212 clip~ -1 1;
#X obj 647 447 t f f f f f f f, f 32;
#X obj 212 873 *~ 0.5;
#X obj 22 116 declare -lib mrpeach;
#N canvas 63 101 200 218 fromPython 0;
#X obj 10 59 netreceive -u -b;
#X msg 10 38 listen 9000;
#X obj 10 80 oscparse;
#X obj 10 101 route list;
#X floatatom 75 155 5 0 0 0 - - - 0;
#X floatatom 140 156 5 0 0 0 - - - 0;
#X floatatom 10 155 5 0 0 0 - - - 0;
#X obj 10 122 route dist_x dist_y;
#X obj 10 178 outlet;
#X obj 75 178 outlet;
#X obj 10 13 loadbang;
#X connect 0 0 2 0;
#X connect 1 0 0 0;
#X connect 2 0 3 0;
#X connect 3 0 7 0;
#X connect 4 0 9 0;
#X connect 6 0 8 0;
#X connect 7 0 6 0;
#X connect 7 1 4 0;
#X connect 7 2 5 0;
#X connect 10 0 1 0;
#X restore 307 -1 pd fromPython;
#X floatatom 307 21 5 0 0 0 - - - 0;
#X floatatom 366 21 5 0 0 0 - - - 0;
#X text 293 22 X;
#X text 352 21 Y;
#X obj 366 134 s yDist;
#X obj 859 1206 r yDist;
#X obj 854 1284 line~;
#X msg 854 1263 \$1 50;
#X msg 823 1221 1;
#X obj 366 41 expr abs($f1);
#X obj 307 83 expr abs($f1);
#X floatatom 307 167 5 0 1 0 - - - 0;
#X obj 307 208 s xDist;
#X obj 481 1026 r xDist;
#X obj 307 146 line;
#X obj 647 368 loadbang;
#X msg 647 392 80;
#X obj 477 365 change;
#X text 1108 1527 edge;
#X msg 307 125 \$1 150;
#X obj 110 205 s lineUp;
#X msg 110 181 100;
#X obj 185 204 s lineDown;
#X obj 212 851 osc~;
#X msg 52 182 50;
#X obj 52 206 s rand;
#X obj 115 148 loadbang;
#X msg 185 180 500;
#X obj 475 236 expr abs($f1);
#X obj 476 75 bng 19 250 50 0 empty empty empty 0 -10 0 12 #fcfcfc #000000 #000000;
#X obj 476 99 tgl 19 0 empty empty empty 0 -10 0 12 #fcfcfc #000000 #000000 0 1;
#X obj 476 123 sel 0;
#X obj 476 151 bng 19 250 50 0 empty empty empty 0 -10 0 12 #fcfcfc #000000 #000000;
#X obj 508 165 bng 19 250 50 0 empty empty empty 0 -10 0 12 #fcfcfc #000000 #000000;
#X obj 475 6 loadbang;
#X obj 475 30 tgl 19 0 empty empty empty 0 -10 0 12 #fcfcfc #000000 #000000 0 1;
#X obj 476 187 f;
#X obj 508 187 f;
#X obj 475 214 -;
#X obj 508 143 t b b;
#X obj 475 53 metro 100;
#X floatatom 477 345 5 0 0 0 - - - 0;
#X obj 477 387 s xVel;
#X floatatom 487 707 5 0 0 0 - - - 0;
#X obj 469 727 +;
#X obj 435 670 f;
#X listbox 435 790 20 0 0 0 - - - 0;
#X obj 435 769 pack f f f f, f 15;
#X obj 503 727 r lineUp;
#X obj 537 748 r lineDown;
#X msg 435 810 \$2 \$3 \, \$1 \$4 \$3;
#X obj 435 831 vline~;
#X obj 554 604 r rand;
#X obj 554 646 / 2;
#X obj 487 665 -;
#X obj 487 644 random;
#X obj 487 686 *;
#X obj 435 514 r xVel;
#X obj 435 535 t b b f, f 8;
#X obj 554 625 * 2;
#X obj 477 282 f;
#X obj 516 282 sel 1;
#X obj 516 258 > 0.01;
#X msg 505 579 \$1 \$2;
#X obj 505 558 pack f f;
#X obj 505 600 line;
#X obj 505 621 t b f;
#X floatatom 264 706 5 0 0 0 - - - 0;
#X obj 246 726 +;
#X obj 212 672 f;
#X listbox 212 789 20 0 0 0 - - - 0;
#X obj 212 768 pack f f f f, f 15;
#X obj 280 726 r lineUp;
#X obj 314 747 r lineDown;
#X msg 212 809 \$2 \$3 \, \$1 \$4 \$3;
#X obj 212 830 vline~;
#X obj 331 591 r rand;
#X obj 331 646 / 2;
#X obj 264 662 -;
#X obj 264 638 random;
#X obj 264 685 *;
#X obj 212 496 r xVel;
#X obj 212 517 t b b f, f 8;
#X msg 282 560 \$1 \$2;
#X obj 282 537 pack f f;
#X obj 282 584 line;
#X obj 282 608 t b f;
#X floatatom 708 709 5 0 0 0 - - - 0;
#X obj 690 729 +;
#X obj 656 675 f;
#X listbox 656 792 20 0 0 0 - - - 0;
#X obj 656 771 pack f f f f, f 15;
#X obj 724 729 r lineUp;
#X obj 758 750 r lineDown;
#X msg 656 812 \$2 \$3 \, \$1 \$4 \$3;
#X obj 656 833 vline~;
#X obj 775 605 r rand;
#X obj 775 648 / 2;
#X obj 708 667 -;
#X obj 708 645 random;
#X obj 708 688 *;
#X obj 656 510 r xVel;
#X obj 656 531 t b b f, f 8;
#X msg 726 574 \$1 \$2;
#X obj 726 551 pack f f;
#X obj 726 598 line;
#X obj 726 622 t b f;
#X obj 775 626 * 3;
#X floatatom 1594 708 5 0 0 0 - - - 0;
#X obj 1576 728 +;
#X obj 1542 674 f;
#X listbox 1542 791 20 0 0 0 - - - 0;
#X obj 1542 770 pack f f f f, f 15;
#X obj 1610 728 r lineUp;
#X obj 1644 749 r lineDown;
#X msg 1542 811 \$2 \$3 \, \$1 \$4 \$3;
#X obj 1542 832 vline~;
#X obj 1661 593 r rand;
#X obj 1661 648 / 2;
#X obj 1594 664 -;
#X obj 1594 640 random;
#X obj 1594 687 *;
#X obj 1542 498 r xVel;
#X obj 1542 519 t b b f, f 8;
#X msg 1612 562 \$1 \$2;
#X obj 1612 539 pack f f;
#X obj 1612 586 line;
#X obj 1612 610 t b f;
#X obj 1661 614 * 7;
#X obj 477 319 * 2;
#X obj 509 307 bng 30 250 50 0 empty empty empty 0 -10 0 12 #c6ffc7 #000000 #000000;
#X obj 1665 518 r lineUp;
#X obj 779 530 r lineUp;
#X obj 558 537 r lineUp;
#X obj 335 516 r lineUp;
#X floatatom 931 709 5 0 0 0 - - - 0;
#X obj 913 729 +;
#X obj 879 680 f;
#X listbox 879 792 20 0 0 0 - - - 0;
#X obj 879 771 pack f f f f, f 15;
#X obj 947 729 r lineUp;
#X obj 981 750 r lineDown;
#X msg 879 812 \$2 \$3 \, \$1 \$4 \$3;
#X obj 879 833 vline~;
#X obj 998 599 r rand;
#X obj 998 648 / 2;
#X obj 931 667 -;
#X obj 931 646 random;
#X obj 931 688 *;
#X obj 879 512 r xVel;
#X obj 879 533 t b b f, f 8;
#X msg 949 574 \$1 \$2;
#X obj 949 553 pack f f;
#X obj 949 595 line;
#X obj 949 616 t b f;
#X obj 998 620 * 4;
#X obj 1002 532 r lineUp;
#X floatatom 1153 710 5 0 0 0 - - - 0;
#X obj 1135 730 +;
#X obj 1101 678 f;
#X listbox 1101 793 20 0 0 0 - - - 0;
#X obj 1101 772 pack f f f f, f 15;
#X obj 1169 730 r lineUp;
#X obj 1203 751 r lineDown;
#X msg 1101 813 \$2 \$3 \, \$1 \$4 \$3;
#X obj 1101 834 vline~;
#X obj 1220 600 r rand;
#X obj 1220 649 / 2;
#X obj 1153 668 -;
#X obj 1153 647 random;
#X obj 1153 689 *;
#X obj 1101 505 r xVel;
#X obj 1101 526 t b b f, f 8;
#X msg 1171 569 \$1 \$2;
#X obj 1171 546 pack f f;
#X obj 1171 593 line;
#X obj 1171 617 t b f;
#X obj 1224 525 r lineUp;
#X obj 1220 621 * 5;
#X floatatom 1375 708 5 0 0 0 - - - 0;
#X obj 1357 728 +;
#X obj 1323 674 f;
#X listbox 1323 791 20 0 0 0 - - - 0;
#X obj 1323 770 pack f f f f, f 15;
#X obj 1391 728 r lineUp;
#X obj 1425 749 r lineDown;
#X msg 1323 811 \$2 \$3 \, \$1 \$4 \$3;
#X obj 1323 832 vline~;
#X obj 1442 593 r rand;
#X obj 1442 648 / 2;
#X obj 1375 664 -;
#X obj 1375 640 random;
#X obj 1375 686 *;
#X obj 1323 498 r xVel;
#X obj 1323 519 t b b f, f 8;
#X msg 1393 562 \$1 \$2;
#X obj 1393 539 pack f f;
#X obj 1393 586 line;
#X obj 1393 610 t b f;
#X obj 1446 518 r lineUp;
#X obj 1442 614 * 6;
#X obj 1019 1236 *~ 0.75;
#X obj 578 1348 writesf~ 4;
#X msg 559 1275 start;
#X msg 560 1300 stop;
#X obj 823 1200 loadbang;
#X obj 547 1007 loadbang;
#N canvas 232 153 951 754 2DSpinner 0;
#X obj 3 578 inlet~;
#X obj 71 269 hsl 162 19 0 2 0 0 empty empty empty -2 -10 0 12 #c6ffc7 #000000 #000000 0 1;
#X obj 247 123 vsl 19 162 0 2 0 0 empty empty empty 0 -9 0 12 #c6ffc7 #000000 #000000 0 1;
#X obj 64 637 *~;
#X obj 119 637 *~;
#X obj 107 381 *;
#X obj 193 381 *;
#X obj 193 490 *;
#X obj 107 490 *;
#X obj 174 637 *~;
#X obj 229 637 *~;
#X floatatom 107 402 10 0 0 0 - - - 0;
#X floatatom 193 402 10 0 0 0 - - - 0;
#X floatatom 107 511 10 0 0 0 - - - 12;
#X floatatom 193 511 10 0 0 0 - - - 12;
#X obj 119 661 outlet~;
#X obj 64 661 outlet~;
#X obj 174 661 outlet~;
#X obj 229 661 outlet~;
#X obj 247 335 t b;
#X obj 133 291 expr 2 - ($f1);
#X obj 133 315 clip 0 1;
#X obj 68 292 clip 0 1;
#X msg 149 186 1;
#X obj 316 310 expr 2 - ($f1);
#X obj 316 334 clip 0 1;
#X obj 254 310 clip 0 1;
#X obj 347 141 osc~;
#X obj 347 191 snapshot~;
#X obj 493 141 metro 10;
#X floatatom 347 110 5 0 0 0 - - - 0;
#X obj 424 191 snapshot~;
#X obj 424 141 osc~;
#X obj 415 89 bng 19 250 50 0 empty empty empty 0 -10 0 12 #fcfcfc #000000 #000000;
#X msg 415 114 0;
#X obj 347 233 + 1;
#X obj 424 233 + 1;
#X floatatom 347 255 5 0 0 0 - - - 0;
#X floatatom 424 255 5 0 0 0 - - - 0;
#X obj 347 212 *;
#X obj 424 212 *;
#X obj 350 40 hsl 162 19 0 1 0 0 empty empty spinLevel 10 10 0 12 #c6ffc7 #000000 #000000 0 1;
#X msg 449 114 0.25;
#X obj 519 18 inlet;
#X obj 350 63 hsl 162 19 -2 2 0 0 empty empty spinSpeed 10 10 0 12 #c6ffc7 #000000 #000000 0 1;
#X obj 347 15 inlet;
#X obj 388 15 inlet;
#X obj 107 443 line~;
#X msg 107 422 \$1 50;
#X obj 193 443 line~;
#X msg 193 422 \$1 50;
#X obj 107 552 line~;
#X msg 107 531 \$1 50;
#X obj 193 552 line~;
#X msg 193 531 \$1 50;
#X obj 519 63 t b f;
#X obj 519 40 tgl 19 0 empty empty spinSwitch 30 10 0 12 #c6ffc7 #000000 #000000 0 1;
#X obj 149 164 loadbang;
#X connect 0 0 3 0;
#X connect 0 0 4 0;
#X connect 0 0 9 0;
#X connect 0 0 10 0;
#X connect 1 0 20 0;
#X connect 1 0 22 0;
#X connect 2 0 19 0;
#X connect 2 0 26 0;
#X connect 2 0 24 0;
#X connect 3 0 16 0;
#X connect 4 0 15 0;
#X connect 5 0 11 0;
#X connect 6 0 12 0;
#X connect 7 0 14 0;
#X connect 8 0 13 0;
#X connect 9 0 17 0;
#X connect 10 0 18 0;
#X connect 11 0 48 0;
#X connect 12 0 50 0;
#X connect 13 0 52 0;
#X connect 14 0 54 0;
#X connect 19 0 6 0;
#X connect 19 0 8 0;
#X connect 19 0 7 0;
#X connect 19 0 5 0;
#X connect 20 0 21 0;
#X connect 21 0 8 0;
#X connect 21 0 5 0;
#X connect 22 0 6 0;
#X connect 22 0 7 0;
#X connect 23 0 2 0;
#X connect 23 0 1 0;
#X connect 24 0 25 0;
#X connect 25 0 8 1;
#X connect 25 0 7 1;
#X connect 26 0 5 1;
#X connect 26 0 6 1;
#X connect 27 0 28 0;
#X connect 28 0 39 0;
#X connect 29 0 28 0;
#X connect 29 0 31 0;
#X connect 30 0 27 0;
#X connect 30 0 32 0;
#X connect 31 0 40 0;
#X connect 32 0 31 0;
#X connect 33 0 34 0;
#X connect 33 0 42 0;
#X connect 34 0 27 1;
#X connect 35 0 37 0;
#X connect 36 0 38 0;
#X connect 37 0 2 0;
#X connect 38 0 1 0;
#X connect 39 0 35 0;
#X connect 40 0 36 0;
#X connect 41 0 40 1;
#X connect 41 0 39 1;
#X connect 42 0 32 1;
#X connect 43 0 56 0;
#X connect 44 0 30 0;
#X connect 45 0 41 0;
#X connect 46 0 44 0;
#X connect 47 0 3 1;
#X connect 48 0 47 0;
#X connect 49 0 4 1;
#X connect 50 0 49 0;
#X connect 51 0 9 1;
#X connect 52 0 51 0;
#X connect 53 0 10 1;
#X connect 54 0 53 0;
#X connect 55 0 33 0;
#X connect 55 1 29 0;
#X connect 56 0 55 0;
#X connect 57 0 23 0;
#X restore 435 1105 pd 2DSpinner;
#X f 30;
#X obj 262 1058 hsl 162 19 0 1 0 0 empty empty spinLevel 10 10 0 12 #c6ffc7 #000000 #000000 0 1;
#X obj 262 1081 hsl 162 19 -2 2 0 0 empty empty spinSpeed 10 10 0 12 #c6ffc7 #000000 #000000 0 1;
#X obj 212 982 *~;
#X obj 244 898 vsl 19 100 0 1 0 0 empty empty empty 0 -9 0 12 #c6ffc7 #000000 #000000 0 1;
#X obj 325 1034 tgl 19 0 empty empty spinSwitch 30 10 0 12 #c6ffc7 #000000 #000000 0 1;
#X obj 259 1026 r xDist;
#X obj 325 1007 loadbang;
#N canvas 232 153 951 754 2DSpinner 0;
#X obj 3 578 inlet~;
#X obj 71 269 hsl 162 19 0 2 0 0 empty empty empty -2 -10 0 12 #c6ffc7 #000000 #000000 0 1;
#X obj 247 123 vsl 19 162 0 2 0 0 empty empty empty 0 -9 0 12 #c6ffc7 #000000 #000000 0 1;
#X obj 64 637 *~;
#X obj 119 637 *~;
#X obj 107 381 *;
#X obj 193 381 *;
#X obj 193 490 *;
#X obj 107 490 *;
#X obj 174 637 *~;
#X obj 229 637 *~;
#X floatatom 107 402 10 0 0 0 - - - 0;
#X floatatom 193 402 10 0 0 0 - - - 0;
#X floatatom 107 511 10 0 0 0 - - - 12;
#X floatatom 193 511 10 0 0 0 - - - 12;
#X obj 119 661 outlet~;
#X obj 64 661 outlet~;
#X obj 174 661 outlet~;
#X obj 229 661 outlet~;
#X obj 247 335 t b;
#X obj 133 291 expr 2 - ($f1);
#X obj 133 315 clip 0 1;
#X obj 68 292 clip 0 1;
#X msg 149 186 1;
#X obj 316 310 expr 2 - ($f1);
#X obj 316 334 clip 0 1;
#X obj 254 310 clip 0 1;
#X obj 347 141 osc~;
#X obj 347 191 snapshot~;
#X obj 493 141 metro 10;
#X floatatom 347 110 5 0 0 0 - - - 0;
#X obj 424 191 snapshot~;
#X obj 424 141 osc~;
#X obj 415 89 bng 19 250 50 0 empty empty empty 0 -10 0 12 #fcfcfc #000000 #000000;
#X msg 415 114 0;
#X obj 347 233 + 1;
#X obj 424 233 + 1;
#X floatatom 347 255 5 0 0 0 - - - 0;
#X floatatom 424 255 5 0 0 0 - - - 0;
#X obj 347 212 *;
#X obj 424 212 *;
#X obj 350 40 hsl 162 19 0 1 0 0 empty empty spinLevel 10 10 0 12 #c6ffc7 #000000 #000000 0 1;
#X msg 449 114 0.25;
#X obj 519 18 inlet;
#X obj 350 63 hsl 162 19 -2 2 0 0 empty empty spinSpeed 10 10 0 12 #c6ffc7 #000000 #000000 0 1;
#X obj 347 15 inlet;
#X obj 388 15 inlet;
#X obj 107 443 line~;
#X msg 107 422 \$1 50;
#X obj 193 443 line~;
#X msg 193 422 \$1 50;
#X obj 107 552 line~;
#X msg 107 531 \$1 50;
#X obj 193 552 line~;
#X msg 193 531 \$1 50;
#X obj 519 63 t b f;
#X obj 519 40 tgl 19 0 empty empty spinSwitch 30 10 0 12 #c6ffc7 #000000 #000000 0 1;
#X obj 149 164 loadbang;
#X connect 0 0 3 0;
#X connect 0 0 4 0;
#X connect 0 0 9 0;
#X connect 0 0 10 0;
#X connect 1 0 20 0;
#X connect 1 0 22 0;
#X connect 2 0 19 0;
#X connect 2 0 26 0;
#X connect 2 0 24 0;
#X connect 3 0 16 0;
#X connect 4 0 15 0;
#X connect 5 0 11 0;
#X connect 6 0 12 0;
#X connect 7 0 14 0;
#X connect 8 0 13 0;
#X connect 9 0 17 0;
#X connect 10 0 18 0;
#X connect 11 0 48 0;
#X connect 12 0 50 0;
#X connect 13 0 52 0;
#X connect 14 0 54 0;
#X connect 19 0 6 0;
#X connect 19 0 8 0;
#X connect 19 0 7 0;
#X connect 19 0 5 0;
#X connect 20 0 21 0;
#X connect 21 0 8 0;
#X connect 21 0 5 0;
#X connect 22 0 6 0;
#X connect 22 0 7 0;
#X connect 23 0 2 0;
#X connect 23 0 1 0;
#X connect 24 0 25 0;
#X connect 25 0 8 1;
#X connect 25 0 7 1;
#X connect 26 0 5 1;
#X connect 26 0 6 1;
#X connect 27 0 28 0;
#X connect 28 0 39 0;
#X connect 29 0 28 0;
#X connect 29 0 31 0;
#X connect 30 0 27 0;
#X connect 30 0 32 0;
#X connect 31 0 40 0;
#X connect 32 0 31 0;
#X connect 33 0 34 0;
#X connect 33 0 42 0;
#X connect 34 0 27 1;
#X connect 35 0 37 0;
#X connect 36 0 38 0;
#X connect 37 0 2 0;
#X connect 38 0 1 0;
#X connect 39 0 35 0;
#X connect 40 0 36 0;
#X connect 41 0 40 1;
#X connect 41 0 39 1;
#X connect 42 0 32 1;
#X connect 43 0 56 0;
#X connect 44 0 30 0;
#X connect 45 0 41 0;
#X connect 46 0 44 0;
#X connect 47 0 3 1;
#X connect 48 0 47 0;
#X connect 49 0 4 1;
#X connect 50 0 49 0;
#X connect 51 0 9 1;
#X connect 52 0 51 0;
#X connect 53 0 10 1;
#X connect 54 0 53 0;
#X connect 55 0 33 0;
#X connect 55 1 29 0;
#X connect 56 0 55 0;
#X connect 57 0 23 0;
#X restore 213 1105 pd 2DSpinner;
#X f 30;
#X obj 706 1058 hsl 162 19 0 1 0 0 empty empty spinLevel 10 10 0 12 #c6ffc7 #000000 #000000 0 1;
#X obj 706 1081 hsl 162 19 -2 2 0 0 empty empty spinSpeed 10 10 0 12 #c6ffc7 #000000 #000000 0 1;
#X obj 656 982 *~;
#X obj 688 898 vsl 19 100 0 1 0 0 empty empty empty 0 -9 0 12 #c6ffc7 #000000 #000000 0 1;
#X obj 769 1034 tgl 19 0 empty empty spinSwitch 30 10 0 12 #c6ffc7 #000000 #000000 0 1;
#X obj 703 1026 r xDist;
#X obj 769 1007 loadbang;
#N canvas 232 153 951 754 2DSpinner 0;
#X obj 3 578 inlet~;
#X obj 71 269 hsl 162 19 0 2 0 0 empty empty empty -2 -10 0 12 #c6ffc7 #000000 #000000 0 1;
#X obj 247 123 vsl 19 162 0 2 0 0 empty empty empty 0 -9 0 12 #c6ffc7 #000000 #000000 0 1;
#X obj 64 637 *~;
#X obj 119 637 *~;
#X obj 107 381 *;
#X obj 193 381 *;
#X obj 193 490 *;
#X obj 107 490 *;
#X obj 174 637 *~;
#X obj 229 637 *~;
#X floatatom 107 402 10 0 0 0 - - - 0;
#X floatatom 193 402 10 0 0 0 - - - 0;
#X floatatom 107 511 10 0 0 0 - - - 12;
#X floatatom 193 511 10 0 0 0 - - - 12;
#X obj 119 661 outlet~;
#X obj 64 661 outlet~;
#X obj 174 661 outlet~;
#X obj 229 661 outlet~;
#X obj 247 335 t b;
#X obj 133 291 expr 2 - ($f1);
#X obj 133 315 clip 0 1;
#X obj 68 292 clip 0 1;
#X msg 149 186 1;
#X obj 316 310 expr 2 - ($f1);
#X obj 316 334 clip 0 1;
#X obj 254 310 clip 0 1;
#X obj 347 141 osc~;
#X obj 347 191 snapshot~;
#X obj 493 141 metro 10;
#X floatatom 347 110 5 0 0 0 - - - 0;
#X obj 424 191 snapshot~;
#X obj 424 141 osc~;
#X obj 415 89 bng 19 250 50 0 empty empty empty 0 -10 0 12 #fcfcfc #000000 #000000;
#X msg 415 114 0;
#X obj 347 233 + 1;
#X obj 424 233 + 1;
#X floatatom 347 255 5 0 0 0 - - - 0;
#X floatatom 424 255 5 0 0 0 - - - 0;
#X obj 347 212 *;
#X obj 424 212 *;
#X obj 350 40 hsl 162 19 0 1 0 0 empty empty spinLevel 10 10 0 12 #c6ffc7 #000000 #000000 0 1;
#X msg 449 114 0.25;
#X obj 519 18 inlet;
#X obj 350 63 hsl 162 19 -2 2 0 0 empty empty spinSpeed 10 10 0 12 #c6ffc7 #000000 #000000 0 1;
#X obj 347 15 inlet;
#X obj 388 15 inlet;
#X obj 107 443 line~;
#X msg 107 422 \$1 50;
#X obj 193 443 line~;
#X msg 193 422 \$1 50;
#X obj 107 552 line~;
#X msg 107 531 \$1 50;
#X obj 193 552 line~;
#X msg 193 531 \$1 50;
#X obj 519 63 t b f;
#X obj 519 40 tgl 19 0 empty empty spinSwitch 30 10 0 12 #c6ffc7 #000000 #000000 0 1;
#X obj 149 164 loadbang;
#X connect 0 0 3 0;
#X connect 0 0 4 0;
#X connect 0 0 9 0;
#X connect 0 0 10 0;
#X connect 1 0 20 0;
#X connect 1 0 22 0;
#X connect 2 0 19 0;
#X connect 2 0 26 0;
#X connect 2 0 24 0;
#X connect 3 0 16 0;
#X connect 4 0 15 0;
#X connect 5 0 11 0;
#X connect 6 0 12 0;
#X connect 7 0 14 0;
#X connect 8 0 13 0;
#X connect 9 0 17 0;
#X connect 10 0 18 0;
#X connect 11 0 48 0;
#X connect 12 0 50 0;
#X connect 13 0 52 0;
#X connect 14 0 54 0;
#X connect 19 0 6 0;
#X connect 19 0 8 0;
#X connect 19 0 7 0;
#X connect 19 0 5 0;
#X connect 20 0 21 0;
#X connect 21 0 8 0;
#X connect 21 0 5 0;
#X connect 22 0 6 0;
#X connect 22 0 7 0;
#X connect 23 0 2 0;
#X connect 23 0 1 0;
#X connect 24 0 25 0;
#X connect 25 0 8 1;
#X connect 25 0 7 1;
#X connect 26 0 5 1;
#X connect 26 0 6 1;
#X connect 27 0 28 0;
#X connect 28 0 39 0;
#X connect 29 0 28 0;
#X connect 29 0 31 0;
#X connect 30 0 27 0;
#X connect 30 0 32 0;
#X connect 31 0 40 0;
#X connect 32 0 31 0;
#X connect 33 0 34 0;
#X connect 33 0 42 0;
#X connect 34 0 27 1;
#X connect 35 0 37 0;
#X connect 36 0 38 0;
#X connect 37 0 2 0;
#X connect 38 0 1 0;
#X connect 39 0 35 0;
#X connect 40 0 36 0;
#X connect 41 0 40 1;
#X connect 41 0 39 1;
#X connect 42 0 32 1;
#X connect 43 0 56 0;
#X connect 44 0 30 0;
#X connect 45 0 41 0;
#X connect 46 0 44 0;
#X connect 47 0 3 1;
#X connect 48 0 47 0;
#X connect 49 0 4 1;
#X connect 50 0 49 0;
#X connect 51 0 9 1;
#X connect 52 0 51 0;
#X connect 53 0 10 1;
#X connect 54 0 53 0;
#X connect 55 0 33 0;
#X connect 55 1 29 0;
#X connect 56 0 55 0;
#X connect 57 0 23 0;
#X restore 657 1105 pd 2DSpinner;
#X f 30;
#X obj 929 1058 hsl 162 19 0 1 0 0 empty empty spinLevel 10 10 0 12 #c6ffc7 #000000 #000000 0 1;
#X obj 929 1081 hsl 162 19 -2 2 0 0 empty empty spinSpeed 10 10 0 12 #c6ffc7 #000000 #000000 0 1;
#X obj 879 982 *~;
#X obj 911 898 vsl 19 100 0 1 0 0 empty empty empty 0 -9 0 12 #c6ffc7 #000000 #000000 0 1;
#X obj 992 1034 tgl 19 0 empty empty spinSwitch 30 10 0 12 #c6ffc7 #000000 #000000 0 1;
#X obj 926 1026 r xDist;
#X obj 992 1007 loadbang;
#N canvas 232 153 951 754 2DSpinner 0;
#X obj 3 578 inlet~;
#X obj 71 269 hsl 162 19 0 2 0 0 empty empty empty -2 -10 0 12 #c6ffc7 #000000 #000000 0 1;
#X obj 247 123 vsl 19 162 0 2 0 0 empty empty empty 0 -9 0 12 #c6ffc7 #000000 #000000 0 1;
#X obj 64 637 *~;
#X obj 119 637 *~;
#X obj 107 381 *;
#X obj 193 381 *;
#X obj 193 490 *;
#X obj 107 490 *;
#X obj 174 637 *~;
#X obj 229 637 *~;
#X floatatom 107 402 10 0 0 0 - - - 0;
#X floatatom 193 402 10 0 0 0 - - - 0;
#X floatatom 107 511 10 0 0 0 - - - 12;
#X floatatom 193 511 10 0 0 0 - - - 12;
#X obj 119 661 outlet~;
#X obj 64 661 outlet~;
#X obj 174 661 outlet~;
#X obj 229 661 outlet~;
#X obj 247 335 t b;
#X obj 133 291 expr 2 - ($f1);
#X obj 133 315 clip 0 1;
#X obj 68 292 clip 0 1;
#X msg 149 186 1;
#X obj 316 310 expr 2 - ($f1);
#X obj 316 334 clip 0 1;
#X obj 254 310 clip 0 1;
#X obj 347 141 osc~;
#X obj 347 191 snapshot~;
#X obj 493 141 metro 10;
#X floatatom 347 110 5 0 0 0 - - - 0;
#X obj 424 191 snapshot~;
#X obj 424 141 osc~;
#X obj 415 89 bng 19 250 50 0 empty empty empty 0 -10 0 12 #fcfcfc #000000 #000000;
#X msg 415 114 0;
#X obj 347 233 + 1;
#X obj 424 233 + 1;
#X floatatom 347 255 5 0 0 0 - - - 0;
#X floatatom 424 255 5 0 0 0 - - - 0;
#X obj 347 212 *;
#X obj 424 212 *;
#X obj 350 40 hsl 162 19 0 1 0 0 empty empty spinLevel 10 10 0 12 #c6ffc7 #000000 #000000 0 1;
#X msg 449 114 0.25;
#X obj 519 18 inlet;
#X obj 350 63 hsl 162 19 -2 2 0 0 empty empty spinSpeed 10 10 0 12 #c6ffc7 #000000 #000000 0 1;
#X obj 347 15 inlet;
#X obj 388 15 inlet;
#X obj 107 443 line~;
#X msg 107 422 \$1 50;
#X obj 193 443 line~;
#X msg 193 422 \$1 50;
#X obj 107 552 line~;
#X msg 107 531 \$1 50;
#X obj 193 552 line~;
#X msg 193 531 \$1 50;
#X obj 519 63 t b f;
#X obj 519 40 tgl 19 0 empty empty spinSwitch 30 10 0 12 #c6ffc7 #000000 #000000 0 1;
#X obj 149 164 loadbang;
#X connect 0 0 3 0;
#X connect 0 0 4 0;
#X connect 0 0 9 0;
#X connect 0 0 10 0;
#X connect 1 0 20 0;
#X connect 1 0 22 0;
#X connect 2 0 19 0;
#X connect 2 0 26 0;
#X connect 2 0 24 0;
#X connect 3 0 16 0;
#X connect 4 0 15 0;
#X connect 5 0 11 0;
#X connect 6 0 12 0;
#X connect 7 0 14 0;
#X connect 8 0 13 0;
#X connect 9 0 17 0;
#X connect 10 0 18 0;
#X connect 11 0 48 0;
#X connect 12 0 50 0;
#X connect 13 0 52 0;
#X connect 14 0 54 0;
#X connect 19 0 6 0;
#X connect 19 0 8 0;
#X connect 19 0 7 0;
#X connect 19 0 5 0;
#X connect 20 0 21 0;
#X connect 21 0 8 0;
#X connect 21 0 5 0;
#X connect 22 0 6 0;
#X connect 22 0 7 0;
#X connect 23 0 2 0;
#X connect 23 0 1 0;
#X connect 24 0 25 0;
#X connect 25 0 8 1;
#X connect 25 0 7 1;
#X connect 26 0 5 1;
#X connect 26 0 6 1;
#X connect 27 0 28 0;
#X connect 28 0 39 0;
#X connect 29 0 28 0;
#X connect 29 0 31 0;
#X connect 30 0 27 0;
#X connect 30 0 32 0;
#X connect 31 0 40 0;
#X connect 32 0 31 0;
#X connect 33 0 34 0;
#X connect 33 0 42 0;
#X connect 34 0 27 1;
#X connect 35 0 37 0;
#X connect 36 0 38 0;
#X connect 37 0 2 0;
#X connect 38 0 1 0;
#X connect 39 0 35 0;
#X connect 40 0 36 0;
#X connect 41 0 40 1;
#X connect 41 0 39 1;
#X connect 42 0 32 1;
#X connect 43 0 56 0;
#X connect 44 0 30 0;
#X connect 45 0 41 0;
#X connect 46 0 44 0;
#X connect 47 0 3 1;
#X connect 48 0 47 0;
#X connect 49 0 4 1;
#X connect 50 0 49 0;
#X connect 51 0 9 1;
#X connect 52 0 51 0;
#X connect 53 0 10 1;
#X connect 54 0 53 0;
#X connect 55 0 33 0;
#X connect 55 1 29 0;
#X connect 56 0 55 0;
#X connect 57 0 23 0;
#X restore 880 1105 pd 2DSpinner;
#X f 30;
#X obj 1153 1058 hsl 162 19 0 1 0 0 empty empty spinLevel 10 10 0 12 #c6ffc7 #000000 #000000 0 1;
#X obj 1153 1081 hsl 162 19 -2 2 0 0 empty empty spinSpeed 10 10 0 12 #c6ffc7 #000000 #000000 0 1;
#X obj 1103 982 *~;
#X obj 1135 898 vsl 19 100 0 1 0 0 empty empty empty 0 -9 0 12 #c6ffc7 #000000 #000000 0 1;
#X obj 1216 1034 tgl 19 0 empty empty spinSwitch 30 10 0 12 #c6ffc7 #000000 #000000 0 1;
#X obj 1150 1026 r xDist;
#X obj 1216 1007 loadbang;
#N canvas 232 153 951 754 2DSpinner 0;
#X obj 3 578 inlet~;
#X obj 71 269 hsl 162 19 0 2 0 0 empty empty empty -2 -10 0 12 #c6ffc7 #000000 #000000 0 1;
#X obj 247 123 vsl 19 162 0 2 0 0 empty empty empty 0 -9 0 12 #c6ffc7 #000000 #000000 0 1;
#X obj 64 637 *~;
#X obj 119 637 *~;
#X obj 107 381 *;
#X obj 193 381 *;
#X obj 193 490 *;
#X obj 107 490 *;
#X obj 174 637 *~;
#X obj 229 637 *~;
#X floatatom 107 402 10 0 0 0 - - - 0;
#X floatatom 193 402 10 0 0 0 - - - 0;
#X floatatom 107 511 10 0 0 0 - - - 12;
#X floatatom 193 511 10 0 0 0 - - - 12;
#X obj 119 661 outlet~;
#X obj 64 661 outlet~;
#X obj 174 661 outlet~;
#X obj 229 661 outlet~;
#X obj 247 335 t b;
#X obj 133 291 expr 2 - ($f1);
#X obj 133 315 clip 0 1;
#X obj 68 292 clip 0 1;
#X msg 149 186 1;
#X obj 316 310 expr 2 - ($f1);
#X obj 316 334 clip 0 1;
#X obj 254 310 clip 0 1;
#X obj 347 141 osc~;
#X obj 347 191 snapshot~;
#X obj 493 141 metro 10;
#X floatatom 347 110 5 0 0 0 - - - 0;
#X obj 424 191 snapshot~;
#X obj 424 141 osc~;
#X obj 415 89 bng 19 250 50 0 empty empty empty 0 -10 0 12 #fcfcfc #000000 #000000;
#X msg 415 114 0;
#X obj 347 233 + 1;
#X obj 424 233 + 1;
#X floatatom 347 255 5 0 0 0 - - - 0;
#X floatatom 424 255 5 0 0 0 - - - 0;
#X obj 347 212 *;
#X obj 424 212 *;
#X obj 350 40 hsl 162 19 0 1 0 0 empty empty spinLevel 10 10 0 12 #c6ffc7 #000000 #000000 0 1;
#X msg 449 114 0.25;
#X obj 519 18 inlet;
#X obj 350 63 hsl 162 19 -2 2 0 0 empty empty spinSpeed 10 10 0 12 #c6ffc7 #000000 #000000 0 1;
#X obj 347 15 inlet;
#X obj 388 15 inlet;
#X obj 107 443 line~;
#X msg 107 422 \$1 50;
#X obj 193 443 line~;
#X msg 193 422 \$1 50;
#X obj 107 552 line~;
#X msg 107 531 \$1 50;
#X obj 193 552 line~;
#X msg 193 531 \$1 50;
#X obj 519 63 t b f;
#X obj 519 40 tgl 19 0 empty empty spinSwitch 30 10 0 12 #c6ffc7 #000000 #000000 0 1;
#X obj 149 164 loadbang;
#X connect 0 0 3 0;
#X connect 0 0 4 0;
#X connect 0 0 9 0;
#X connect 0 0 10 0;
#X connect 1 0 20 0;
#X connect 1 0 22 0;
#X connect 2 0 19 0;
#X connect 2 0 26 0;
#X connect 2 0 24 0;
#X connect 3 0 16 0;
#X connect 4 0 15 0;
#X connect 5 0 11 0;
#X connect 6 0 12 0;
#X connect 7 0 14 0;
#X connect 8 0 13 0;
#X connect 9 0 17 0;
#X connect 10 0 18 0;
#X connect 11 0 48 0;
#X connect 12 0 50 0;
#X connect 13 0 52 0;
#X connect 14 0 54 0;
#X connect 19 0 6 0;
#X connect 19 0 8 0;
#X connect 19 0 7 0;
#X connect 19 0 5 0;
#X connect 20 0 21 0;
#X connect 21 0 8 0;
#X connect 21 0 5 0;
#X connect 22 0 6 0;
#X connect 22 0 7 0;
#X connect 23 0 2 0;
#X connect 23 0 1 0;
#X connect 24 0 25 0;
#X connect 25 0 8 1;
#X connect 25 0 7 1;
#X connect 26 0 5 1;
#X connect 26 0 6 1;
#X connect 27 0 28 0;
#X connect 28 0 39 0;
#X connect 29 0 28 0;
#X connect 29 0 31 0;
#X connect 30 0 27 0;
#X connect 30 0 32 0;
#X connect 31 0 40 0;
#X connect 32 0 31 0;
#X connect 33 0 34 0;
#X connect 33 0 42 0;
#X connect 34 0 27 1;
#X connect 35 0 37 0;
#X connect 36 0 38 0;
#X connect 37 0 2 0;
#X connect 38 0 1 0;
#X connect 39 0 35 0;
#X connect 40 0 36 0;
#X connect 41 0 40 1;
#X connect 41 0 39 1;
#X connect 42 0 32 1;
#X connect 43 0 56 0;
#X connect 44 0 30 0;
#X connect 45 0 41 0;
#X connect 46 0 44 0;
#X connect 47 0 3 1;
#X connect 48 0 47 0;
#X connect 49 0 4 1;
#X connect 50 0 49 0;
#X connect 51 0 9 1;
#X connect 52 0 51 0;
#X connect 53 0 10 1;
#X connect 54 0 53 0;
#X connect 55 0 33 0;
#X connect 55 1 29 0;
#X connect 56 0 55 0;
#X connect 57 0 23 0;
#X restore 1104 1105 pd 2DSpinner;
#X f 30;
#X obj 1373 1058 hsl 162 19 0 1 0 0 empty empty spinLevel 10 10 0 12 #c6ffc7 #000000 #000000 0 1;
#X obj 1373 1081 hsl 162 19 -2 2 0 0 empty empty spinSpeed 10 10 0 12 #c6ffc7 #000000 #000000 0 1;
#X obj 1323 982 *~;
#X obj 1355 898 vsl 19 100 0 1 0 0 empty empty empty 0 -9 0 12 #c6ffc7 #000000 #000000 0 1;
#X obj 1436 1034 tgl 19 0 empty empty spinSwitch 30 10 0 12 #c6ffc7 #000000 #000000 0 1;
#X obj 1370 1026 r xDist;
#X obj 1436 1007 loadbang;
#N canvas 232 153 951 754 2DSpinner 0;
#X obj 3 578 inlet~;
#X obj 71 269 hsl 162 19 0 2 0 0 empty empty empty -2 -10 0 12 #c6ffc7 #000000 #000000 0 1;
#X obj 247 123 vsl 19 162 0 2 0 0 empty empty empty 0 -9 0 12 #c6ffc7 #000000 #000000 0 1;
#X obj 64 637 *~;
#X obj 119 637 *~;
#X obj 107 381 *;
#X obj 193 381 *;
#X obj 193 490 *;
#X obj 107 490 *;
#X obj 174 637 *~;
#X obj 229 637 *~;
#X floatatom 107 402 10 0 0 0 - - - 0;
#X floatatom 193 402 10 0 0 0 - - - 0;
#X floatatom 107 511 10 0 0 0 - - - 12;
#X floatatom 193 511 10 0 0 0 - - - 12;
#X obj 119 661 outlet~;
#X obj 64 661 outlet~;
#X obj 174 661 outlet~;
#X obj 229 661 outlet~;
#X obj 247 335 t b;
#X obj 133 291 expr 2 - ($f1);
#X obj 133 315 clip 0 1;
#X obj 68 292 clip 0 1;
#X msg 149 186 1;
#X obj 316 310 expr 2 - ($f1);
#X obj 316 334 clip 0 1;
#X obj 254 310 clip 0 1;
#X obj 347 141 osc~;
#X obj 347 191 snapshot~;
#X obj 493 141 metro 10;
#X floatatom 347 110 5 0 0 0 - - - 0;
#X obj 424 191 snapshot~;
#X obj 424 141 osc~;
#X obj 415 89 bng 19 250 50 0 empty empty empty 0 -10 0 12 #fcfcfc #000000 #000000;
#X msg 415 114 0;
#X obj 347 233 + 1;
#X obj 424 233 + 1;
#X floatatom 347 255 5 0 0 0 - - - 0;
#X floatatom 424 255 5 0 0 0 - - - 0;
#X obj 347 212 *;
#X obj 424 212 *;
#X obj 350 40 hsl 162 19 0 1 0 0 empty empty spinLevel 10 10 0 12 #c6ffc7 #000000 #000000 0 1;
#X msg 449 114 0.25;
#X obj 519 18 inlet;
#X obj 350 63 hsl 162 19 -2 2 0 0 empty empty spinSpeed 10 10 0 12 #c6ffc7 #000000 #000000 0 1;
#X obj 347 15 inlet;
#X obj 388 15 inlet;
#X obj 107 443 line~;
#X msg 107 422 \$1 50;
#X obj 193 443 line~;
#X msg 193 422 \$1 50;
#X obj 107 552 line~;
#X msg 107 531 \$1 50;
#X obj 193 552 line~;
#X msg 193 531 \$1 50;
#X obj 519 63 t b f;
#X obj 519 40 tgl 19 0 empty empty spinSwitch 30 10 0 12 #c6ffc7 #000000 #000000 0 1;
#X obj 149 164 loadbang;
#X connect 0 0 3 0;
#X connect 0 0 4 0;
#X connect 0 0 9 0;
#X connect 0 0 10 0;
#X connect 1 0 20 0;
#X connect 1 0 22 0;
#X connect 2 0 19 0;
#X connect 2 0 26 0;
#X connect 2 0 24 0;
#X connect 3 0 16 0;
#X connect 4 0 15 0;
#X connect 5 0 11 0;
#X connect 6 0 12 0;
#X connect 7 0 14 0;
#X connect 8 0 13 0;
#X connect 9 0 17 0;
#X connect 10 0 18 0;
#X connect 11 0 48 0;
#X connect 12 0 50 0;
#X connect 13 0 52 0;
#X connect 14 0 54 0;
#X connect 19 0 6 0;
#X connect 19 0 8 0;
#X connect 19 0 7 0;
#X connect 19 0 5 0;
#X connect 20 0 21 0;
#X connect 21 0 8 0;
#X connect 21 0 5 0;
#X connect 22 0 6 0;
#X connect 22 0 7 0;
#X connect 23 0 2 0;
#X connect 23 0 1 0;
#X connect 24 0 25 0;
#X connect 25 0 8 1;
#X connect 25 0 7 1;
#X connect 26 0 5 1;
#X connect 26 0 6 1;
#X connect 27 0 28 0;
#X connect 28 0 39 0;
#X connect 29 0 28 0;
#X connect 29 0 31 0;
#X connect 30 0 27 0;
#X connect 30 0 32 0;
#X connect 31 0 40 0;
#X connect 32 0 31 0;
#X connect 33 0 34 0;
#X connect 33 0 42 0;
#X connect 34 0 27 1;
#X connect 35 0 37 0;
#X connect 36 0 38 0;
#X connect 37 0 2 0;
#X connect 38 0 1 0;
#X connect 39 0 35 0;
#X connect 40 0 36 0;
#X connect 41 0 40 1;
#X connect 41 0 39 1;
#X connect 42 0 32 1;
#X connect 43 0 56 0;
#X connect 44 0 30 0;
#X connect 45 0 41 0;
#X connect 46 0 44 0;
#X connect 47 0 3 1;
#X connect 48 0 47 0;
#X connect 49 0 4 1;
#X connect 50 0 49 0;
#X connect 51 0 9 1;
#X connect 52 0 51 0;
#X connect 53 0 10 1;
#X connect 54 0 53 0;
#X connect 55 0 33 0;
#X connect 55 1 29 0;
#X connect 56 0 55 0;
#X connect 57 0 23 0;
#X restore 1324 1105 pd 2DSpinner;
#X f 30;
#X obj 1591 1057 hsl 162 19 0 1 0 0 empty empty spinLevel 10 10 0 12 #c6ffc7 #000000 #000000 0 1;
#X obj 1591 1080 hsl 162 19 -2 2 0 0 empty empty spinSpeed 10 10 0 12 #c6ffc7 #000000 #000000 0 1;
#X obj 1541 981 *~;
#X obj 1573 897 vsl 19 100 0 1 0 0 empty empty empty 0 -9 0 12 #c6ffc7 #000000 #000000 0 1;
#X obj 1654 1033 tgl 19 0 empty empty spinSwitch 30 10 0 12 #c6ffc7 #000000 #000000 0 1;
#X obj 1588 1025 r xDist;
#X obj 1654 1006 loadbang;
#N canvas 232 153 951 754 2DSpinner 0;
#X obj 3 578 inlet~;
#X obj 71 269 hsl 162 19 0 2 0 0 empty empty empty -2 -10 0 12 #c6ffc7 #000000 #000000 0 1;
#X obj 247 123 vsl 19 162 0 2 0 0 empty empty empty 0 -9 0 12 #c6ffc7 #000000 #000000 0 1;
#X obj 64 637 *~;
#X obj 119 637 *~;
#X obj 107 381 *;
#X obj 193 381 *;
#X obj 193 490 *;
#X obj 107 490 *;
#X obj 174 637 *~;
#X obj 229 637 *~;
#X floatatom 107 402 10 0 0 0 - - - 0;
#X floatatom 193 402 10 0 0 0 - - - 0;
#X floatatom 107 511 10 0 0 0 - - - 12;
#X floatatom 193 511 10 0 0 0 - - - 12;
#X obj 119 661 outlet~;
#X obj 64 661 outlet~;
#X obj 174 661 outlet~;
#X obj 229 661 outlet~;
#X obj 247 335 t b;
#X obj 133 291 expr 2 - ($f1);
#X obj 133 315 clip 0 1;
#X obj 68 292 clip 0 1;
#X msg 149 186 1;
#X obj 316 310 expr 2 - ($f1);
#X obj 316 334 clip 0 1;
#X obj 254 310 clip 0 1;
#X obj 347 141 osc~;
#X obj 347 191 snapshot~;
#X obj 493 141 metro 10;
#X floatatom 347 110 5 0 0 0 - - - 0;
#X obj 424 191 snapshot~;
#X obj 424 141 osc~;
#X obj 415 89 bng 19 250 50 0 empty empty empty 0 -10 0 12 #fcfcfc #000000 #000000;
#X msg 415 114 0;
#X obj 347 233 + 1;
#X obj 424 233 + 1;
#X floatatom 347 255 5 0 0 0 - - - 0;
#X floatatom 424 255 5 0 0 0 - - - 0;
#X obj 347 212 *;
#X obj 424 212 *;
#X obj 350 40 hsl 162 19 0 1 0 0 empty empty spinLevel 10 10 0 12 #c6ffc7 #000000 #000000 0 1;
#X msg 449 114 0.25;
#X obj 519 18 inlet;
#X obj 350 63 hsl 162 19 -2 2 0 0 empty empty spinSpeed 10 10 0 12 #c6ffc7 #000000 #000000 0 1;
#X obj 347 15 inlet;
#X obj 388 15 inlet;
#X obj 107 443 line~;
#X msg 107 422 \$1 50;
#X obj 193 443 line~;
#X msg 193 422 \$1 50;
#X obj 107 552 line~;
#X msg 107 531 \$1 50;
#X obj 193 552 line~;
#X msg 193 531 \$1 50;
#X obj 519 63 t b f;
#X obj 519 40 tgl 19 0 empty empty spinSwitch 30 10 0 12 #c6ffc7 #000000 #000000 0 1;
#X obj 149 164 loadbang;
#X connect 0 0 3 0;
#X connect 0 0 4 0;
#X connect 0 0 9 0;
#X connect 0 0 10 0;
#X connect 1 0 20 0;
#X connect 1 0 22 0;
#X connect 2 0 19 0;
#X connect 2 0 26 0;
#X connect 2 0 24 0;
#X connect 3 0 16 0;
#X connect 4 0 15 0;
#X connect 5 0 11 0;
#X connect 6 0 12 0;
#X connect 7 0 14 0;
#X connect 8 0 13 0;
#X connect 9 0 17 0;
#X connect 10 0 18 0;
#X connect 11 0 48 0;
#X connect 12 0 50 0;
#X connect 13 0 52 0;
#X connect 14 0 54 0;
#X connect 19 0 6 0;
#X connect 19 0 8 0;
#X connect 19 0 7 0;
#X connect 19 0 5 0;
#X connect 20 0 21 0;
#X connect 21 0 8 0;
#X connect 21 0 5 0;
#X connect 22 0 6 0;
#X connect 22 0 7 0;
#X connect 23 0 2 0;
#X connect 23 0 1 0;
#X connect 24 0 25 0;
#X connect 25 0 8 1;
#X connect 25 0 7 1;
#X connect 26 0 5 1;
#X connect 26 0 6 1;
#X connect 27 0 28 0;
#X connect 28 0 39 0;
#X connect 29 0 28 0;
#X connect 29 0 31 0;
#X connect 30 0 27 0;
#X connect 30 0 32 0;
#X connect 31 0 40 0;
#X connect 32 0 31 0;
#X connect 33 0 34 0;
#X connect 33 0 42 0;
#X connect 34 0 27 1;
#X connect 35 0 37 0;
#X connect 36 0 38 0;
#X connect 37 0 2 0;
#X connect 38 0 1 0;
#X connect 39 0 35 0;
#X connect 40 0 36 0;
#X connect 41 0 40 1;
#X connect 41 0 39 1;
#X connect 42 0 32 1;
#X connect 43 0 56 0;
#X connect 44 0 30 0;
#X connect 45 0 41 0;
#X connect 46 0 44 0;
#X connect 47 0 3 1;
#X connect 48 0 47 0;
#X connect 49 0 4 1;
#X connect 50 0 49 0;
#X connect 51 0 9 1;
#X connect 52 0 51 0;
#X connect 53 0 10 1;
#X connect 54 0 53 0;
#X connect 55 0 33 0;
#X connect 55 1 29 0;
#X connect 56 0 55 0;
#X connect 57 0 23 0;
#X restore 1542 1104 pd 2DSpinner;
#X f 30;
#X obj 993 1362 dac~ 1 2 3 4, f 18;
#X obj 943 1316 vcf~ 4;
#X obj 1010 1313 vcf~ 4;
#X obj 1076 1312 vcf~ 4;
#X obj 1138 1312 vcf~ 4;
#X obj 393 67 * 1.3333;
#X floatatom 413 97 5 0 0 0 - - - 0;
#X obj 1109 1248 *~ 0.25;
#X obj 1197 1248 *~ 0.25;
#X obj 435 873 /~ 2;
#X obj 1542 874 /~ 5;
#X obj 1323 874 /~ 5;
#X obj 307 187 * 3;
#X obj 854 1242 * 560;
#X obj 938 1238 *~ 0.5;
#X msg 560 1251 open aisleIsleDocu1.wav;
#X connect 0 0 1 0;
#X connect 3 0 33 0;
#X connect 4 0 302 0;
#X connect 6 0 24 0;
#X connect 9 0 26 0;
#X connect 10 0 28 0;
#X connect 11 0 13 0;
#X connect 12 0 196 1;
#X connect 13 0 271 0;
#X connect 14 0 304 0;
#X connect 15 0 218 1;
#X connect 16 0 303 0;
#X connect 17 0 147 1;
#X connect 18 0 244 1;
#X connect 19 0 244 2;
#X connect 20 0 244 0;
#X connect 21 0 20 1;
#X connect 22 0 244 3;
#X connect 23 0 82 1;
#X connect 24 0 7 0;
#X connect 24 0 8 0;
#X connect 25 0 174 1;
#X connect 26 0 263 0;
#X connect 27 0 126 1;
#X connect 28 0 255 0;
#X connect 29 0 307 0;
#X connect 30 0 238 0;
#X connect 31 0 301 0;
#X connect 32 0 300 0;
#X connect 33 0 106 1;
#X connect 33 1 23 0;
#X connect 33 2 27 0;
#X connect 33 3 25 0;
#X connect 33 4 12 0;
#X connect 33 5 15 0;
#X connect 33 6 17 0;
#X connect 34 0 247 0;
#X connect 36 0 37 0;
#X connect 36 1 38 0;
#X connect 37 0 47 0;
#X connect 38 0 46 0;
#X connect 42 0 306 0;
#X connect 43 0 294 1;
#X connect 43 0 295 1;
#X connect 43 0 296 1;
#X connect 43 0 297 1;
#X connect 44 0 43 0;
#X connect 45 0 306 0;
#X connect 46 0 298 0;
#X connect 47 0 56 0;
#X connect 48 0 73 1;
#X connect 48 0 74 1;
#X connect 48 0 305 0;
#X connect 50 0 18 0;
#X connect 51 0 48 0;
#X connect 52 0 53 0;
#X connect 53 0 3 0;
#X connect 54 0 79 0;
#X connect 56 0 51 0;
#X connect 58 0 57 0;
#X connect 60 0 34 0;
#X connect 61 0 62 0;
#X connect 63 0 58 0;
#X connect 63 0 64 0;
#X connect 63 0 61 0;
#X connect 64 0 59 0;
#X connect 65 0 97 1;
#X connect 65 0 99 0;
#X connect 66 0 67 0;
#X connect 67 0 68 0;
#X connect 68 0 69 0;
#X connect 68 1 76 0;
#X connect 69 0 73 0;
#X connect 70 0 74 0;
#X connect 71 0 72 0;
#X connect 72 0 77 0;
#X connect 73 0 75 0;
#X connect 74 0 75 1;
#X connect 75 0 65 0;
#X connect 76 0 75 0;
#X connect 76 1 70 0;
#X connect 77 0 66 0;
#X connect 78 0 54 0;
#X connect 80 0 81 1;
#X connect 81 0 84 1;
#X connect 82 0 81 0;
#X connect 82 0 84 0;
#X connect 83 0 87 0;
#X connect 84 0 83 0;
#X connect 85 0 84 2;
#X connect 86 0 84 3;
#X connect 87 0 88 0;
#X connect 88 0 4 0;
#X connect 89 0 96 0;
#X connect 90 0 91 1;
#X connect 91 0 93 0;
#X connect 92 0 91 0;
#X connect 93 0 80 0;
#X connect 94 0 95 0;
#X connect 95 0 82 0;
#X connect 95 1 92 0;
#X connect 95 2 101 0;
#X connect 96 0 90 0;
#X connect 96 0 92 1;
#X connect 97 0 166 0;
#X connect 98 0 97 0;
#X connect 99 0 98 0;
#X connect 100 0 102 0;
#X connect 101 0 100 0;
#X connect 102 0 103 0;
#X connect 103 0 93 0;
#X connect 103 1 93 1;
#X connect 104 0 105 1;
#X connect 105 0 108 1;
#X connect 106 0 105 0;
#X connect 106 0 108 0;
#X connect 107 0 111 0;
#X connect 108 0 107 0;
#X connect 109 0 108 2;
#X connect 110 0 108 3;
#X connect 111 0 112 0;
#X connect 112 0 60 0;
#X connect 113 0 116 1;
#X connect 113 0 114 0;
#X connect 114 0 115 1;
#X connect 115 0 117 0;
#X connect 116 0 115 0;
#X connect 117 0 104 0;
#X connect 118 0 119 0;
#X connect 119 0 106 0;
#X connect 119 1 116 0;
#X connect 119 2 121 0;
#X connect 120 0 122 0;
#X connect 121 0 120 0;
#X connect 122 0 123 0;
#X connect 123 0 117 0;
#X connect 123 1 117 1;
#X connect 124 0 125 1;
#X connect 125 0 128 1;
#X connect 126 0 125 0;
#X connect 126 0 128 0;
#X connect 127 0 131 0;
#X connect 128 0 127 0;
#X connect 129 0 128 2;
#X connect 130 0 128 3;
#X connect 131 0 132 0;
#X connect 132 0 10 0;
#X connect 133 0 144 0;
#X connect 134 0 135 1;
#X connect 135 0 137 0;
#X connect 136 0 135 0;
#X connect 137 0 124 0;
#X connect 138 0 139 0;
#X connect 139 0 126 0;
#X connect 139 1 136 0;
#X connect 139 2 141 0;
#X connect 140 0 142 0;
#X connect 141 0 140 0;
#X connect 142 0 143 0;
#X connect 143 0 137 0;
#X connect 143 1 137 1;
#X connect 144 0 134 0;
#X connect 144 0 136 1;
#X connect 145 0 146 1;
#X connect 146 0 149 1;
#X connect 147 0 146 0;
#X connect 147 0 149 0;
#X connect 148 0 152 0;
#X connect 149 0 148 0;
#X connect 150 0 149 2;
#X connect 151 0 149 3;
#X connect 152 0 153 0;
#X connect 153 0 16 0;
#X connect 154 0 165 0;
#X connect 155 0 156 1;
#X connect 156 0 158 0;
#X connect 157 0 156 0;
#X connect 158 0 145 0;
#X connect 159 0 160 0;
#X connect 160 0 147 0;
#X connect 160 1 157 0;
#X connect 160 2 162 0;
#X connect 161 0 163 0;
#X connect 162 0 161 0;
#X connect 163 0 164 0;
#X connect 164 0 158 0;
#X connect 164 1 158 1;
#X connect 165 0 155 0;
#X connect 165 0 157 1;
#X connect 166 0 78 0;
#X connect 168 0 162 1;
#X connect 169 0 141 1;
#X connect 170 0 101 1;
#X connect 171 0 121 1;
#X connect 172 0 173 1;
#X connect 173 0 176 1;
#X connect 174 0 173 0;
#X connect 174 0 176 0;
#X connect 175 0 179 0;
#X connect 176 0 175 0;
#X connect 177 0 176 2;
#X connect 178 0 176 3;
#X connect 179 0 180 0;
#X connect 180 0 9 0;
#X connect 181 0 192 0;
#X connect 182 0 183 1;
#X connect 183 0 185 0;
#X connect 184 0 183 0;
#X connect 185 0 172 0;
#X connect 186 0 187 0;
#X connect 187 0 174 0;
#X connect 187 1 184 0;
#X connect 187 2 189 0;
#X connect 188 0 190 0;
#X connect 189 0 188 0;
#X connect 190 0 191 0;
#X connect 191 0 185 0;
#X connect 191 1 185 1;
#X connect 192 0 182 0;
#X connect 192 0 184 1;
#X connect 193 0 189 1;
#X connect 194 0 195 1;
#X connect 195 0 198 1;
#X connect 196 0 195 0;
#X connect 196 0 198 0;
#X connect 197 0 201 0;
#X connect 198 0 197 0;
#X connect 199 0 198 2;
#X connect 200 0 198 3;
#X connect 201 0 202 0;
#X connect 202 0 11 0;
#X connect 203 0 215 0;
#X connect 204 0 205 1;
#X connect 205 0 207 0;
#X connect 206 0 205 0;
#X connect 207 0 194 0;
#X connect 208 0 209 0;
#X connect 209 0 196 0;
#X connect 209 1 206 0;
#X connect 209 2 211 0;
#X connect 210 0 212 0;
#X connect 211 0 210 0;
#X connect 212 0 213 0;
#X connect 213 0 207 0;
#X connect 213 1 207 1;
#X connect 214 0 211 1;
#X connect 215 0 204 0;
#X connect 215 0 206 1;
#X connect 216 0 217 1;
#X connect 217 0 220 1;
#X connect 218 0 217 0;
#X connect 218 0 220 0;
#X connect 219 0 223 0;
#X connect 220 0 219 0;
#X connect 221 0 220 2;
#X connect 222 0 220 3;
#X connect 223 0 224 0;
#X connect 224 0 14 0;
#X connect 225 0 237 0;
#X connect 226 0 227 1;
#X connect 227 0 229 0;
#X connect 228 0 227 0;
#X connect 229 0 216 0;
#X connect 230 0 231 0;
#X connect 231 0 218 0;
#X connect 231 1 228 0;
#X connect 231 2 233 0;
#X connect 232 0 234 0;
#X connect 233 0 232 0;
#X connect 234 0 235 0;
#X connect 235 0 229 0;
#X connect 235 1 229 1;
#X connect 236 0 233 1;
#X connect 237 0 226 0;
#X connect 237 0 228 1;
#X connect 238 0 295 0;
#X connect 240 0 239 0;
#X connect 241 0 239 0;
#X connect 242 0 45 0;
#X connect 243 0 22 0;
#X connect 244 0 29 0;
#X connect 244 1 30 0;
#X connect 244 2 31 0;
#X connect 244 3 32 0;
#X connect 245 0 252 1;
#X connect 246 0 252 2;
#X connect 247 0 252 0;
#X connect 248 0 247 1;
#X connect 249 0 252 3;
#X connect 250 0 245 0;
#X connect 251 0 249 0;
#X connect 252 0 29 0;
#X connect 252 1 30 0;
#X connect 252 2 31 0;
#X connect 252 3 32 0;
#X connect 253 0 260 1;
#X connect 254 0 260 2;
#X connect 255 0 260 0;
#X connect 256 0 255 1;
#X connect 257 0 260 3;
#X connect 258 0 253 0;
#X connect 259 0 257 0;
#X connect 260 0 29 0;
#X connect 260 1 30 0;
#X connect 260 2 31 0;
#X connect 260 3 32 0;
#X connect 261 0 268 1;
#X connect 262 0 268 2;
#X connect 263 0 268 0;
#X connect 264 0 263 1;
#X connect 265 0 268 3;
#X connect 266 0 261 0;
#X connect 267 0 265 0;
#X connect 268 0 29 0;
#X connect 268 1 30 0;
#X connect 268 2 31 0;
#X connect 268 3 32 0;
#X connect 269 0 276 1;
#X connect 270 0 276 2;
#X connect 271 0 276 0;
#X connect 272 0 271 1;
#X connect 273 0 276 3;
#X connect 274 0 269 0;
#X connect 275 0 273 0;
#X connect 276 0 29 0;
#X connect 276 1 30 0;
#X connect 276 2 31 0;
#X connect 276 3 32 0;
#X connect 277 0 284 1;
#X connect 278 0 284 2;
#X connect 279 0 284 0;
#X connect 280 0 279 1;
#X connect 281 0 284 3;
#X connect 282 0 277 0;
#X connect 283 0 281 0;
#X connect 284 0 29 0;
#X connect 284 1 30 0;
#X connect 284 2 31 0;
#X connect 284 3 32 0;
#X connect 285 0 292 1;
#X connect 286 0 292 2;
#X connect 287 0 292 0;
#X connect 288 0 287 1;
#X connect 289 0 292 3;
#X connect 290 0 285 0;
#X connect 291 0 289 0;
#X connect 292 0 29 0;
#X connect 292 1 30 0;
#X connect 292 2 31 0;
#X connect 292 3 32 0;
#X connect 294 0 239 0;
#X connect 294 1 293 0;
#X connect 295 0 239 1;
#X connect 295 1 293 1;
#X connect 296 0 239 2;
#X connect 296 1 293 2;
#X connect 297 0 239 3;
#X connect 297 1 293 3;
#X connect 298 0 299 0;
#X connect 299 0 41 0;
#X connect 300 0 296 0;
#X connect 301 0 297 0;
#X connect 302 0 20 0;
#X connect 303 0 287 0;
#X connect 304 0 279 0;
#X connect 305 0 49 0;
#X connect 306 0 44 0;
#X connect 307 0 294 0;
#X connect 308 0 239 0;
